<?xml version="1.0" standalone="no"?>
<!DOCTYPE svg PUBLIC "-//W3C//DTD SVG 20010904//EN"
 "http://www.w3.org/TR/2001/REC-SVG-20010904/DTD/svg10.dtd">
<svg version="1.0" xmlns="http://www.w3.org/2000/svg"
 width="139.000000pt" height="139.000000pt" viewBox="0 0 139.000000 139.000000"
 preserveAspectRatio="xMidYMid meet">
<metadata>
Created by potrace 1.11, written by Peter Selinger 2001-2013
</metadata>
<g transform="translate(0.000000,139.000000) scale(0.100000,-0.100000)"
fill="#000000" stroke="none">
<path d="M66 884 c-67 -68 -78 -92 -51 -114 14 -12 14 -15 0 -30 -8 -9 -15
-25 -15 -36 0 -30 124 -154 153 -154 7 0 43 29 80 65 68 66 77 87 56 127 -8
14 -8 23 0 31 6 6 11 19 11 29 0 22 -129 148 -151 148 -9 0 -46 -30 -83 -66z"/>
<path d="M640 863 l0 -86 -22 20 c-50 46 -153 52 -207 13 -61 -43 -77 -132
-35 -195 40 -61 155 -80 228 -37 l36 21 0 -23 c0 -21 5 -24 40 -24 29 -1 40 3
40 14 0 12 4 12 25 -2 33 -21 117 -21 150 0 13 9 33 26 45 38 l21 22 -3 -34
c-3 -34 -2 -35 32 -35 l35 0 2 84 c3 94 19 131 57 131 39 0 50 -25 52 -114 1
-44 2 -87 3 -93 1 -8 13 -12 34 -10 l32 2 2 83 c3 94 13 119 49 128 46 12 58
-14 59 -118 l1 -93 34 0 35 0 0 112 c0 109 -1 114 -27 140 -20 19 -36 26 -62
25 -37 -1 -76 -17 -88 -36 -4 -7 -15 -3 -31 12 -29 27 -86 32 -120 9 -20 -13
-26 -14 -30 -3 -3 8 -19 13 -39 12 -28 -1 -33 -5 -30 -24 4 -24 -12 -30 -25
-9 -28 47 -116 65 -175 35 l-38 -18 0 70 0 70 -40 0 -40 0 0 -87z m-74 -104
c27 -22 13 -29 -61 -29 -80 0 -93 10 -47 35 29 16 85 14 108 -6z m283 6 c48
-24 57 -88 17 -126 -28 -27 -61 -33 -99 -18 -64 27 -65 113 -2 147 27 15 51
15 84 -3z m-209 -122 l0 -34 -29 15 c-26 14 -32 14 -59 0 -29 -14 -57 -14 -95
1 -18 7 -40 39 -32 46 2 3 51 5 109 5 l106 0 0 -33z"/>
<path d="M7 513 c-4 -3 -7 -19 -7 -35 0 -24 4 -28 28 -27 l27 1 -25 7 c-18 5
-21 9 -11 15 11 7 11 10 0 17 -10 6 -8 9 9 9 12 0 22 5 22 10 0 11 -33 14 -43
3z"/>
<path d="M497 514 c-4 -4 -7 -20 -7 -36 0 -23 4 -28 26 -28 23 0 25 3 22 32
-3 31 -25 48 -41 32z m30 -20 c-3 -3 -12 -4 -19 -1 -8 3 -5 6 6 6 11 1 17 -2
13 -5z m3 -24 c0 -5 -7 -10 -15 -10 -8 0 -15 5 -15 10 0 6 7 10 15 10 8 0 15
-4 15 -10z"/>
<path d="M810 509 c1 -19 27 -52 33 -42 3 4 -3 19 -14 32 -11 13 -19 17 -19
10z"/>
<path d="M854 507 c-2 -7 0 -24 5 -38 9 -22 10 -21 10 14 1 37 -5 48 -15 24z"/>
<path d="M63 480 c1 -12 8 -20 19 -20 10 0 21 0 25 0 10 -1 12 29 2 36 -5 3
-9 -3 -9 -13 -1 -17 -1 -17 -14 0 -17 22 -25 22 -23 -3z"/>
<path d="M132 475 c0 -16 2 -22 5 -12 2 9 2 23 0 30 -3 6 -5 -1 -5 -18z"/>
<path d="M155 490 c-3 -6 2 -13 11 -17 16 -6 16 -7 -2 -14 -17 -7 -17 -8 4 -8
17 -1 22 5 22 24 0 25 -23 35 -35 15z"/>
<path d="M205 489 c-4 -6 3 -13 16 -17 l24 -6 -25 -7 -25 -8 24 2 c29 2 41 27
14 27 -15 0 -16 2 -3 10 13 8 13 10 -2 10 -9 0 -20 -5 -23 -11z"/>
<path d="M262 475 c0 -16 2 -22 5 -12 2 9 2 23 0 30 -3 6 -5 -1 -5 -18z"/>
<path d="M282 478 c2 -15 11 -24 26 -26 18 -3 22 1 22 22 0 21 -5 26 -26 26
-21 0 -25 -4 -22 -22z m38 -4 c0 -17 -22 -14 -28 4 -2 7 3 12 12 12 9 0 16 -7
16 -16z"/>
<path d="M341 474 c0 -25 2 -26 9 -9 7 18 8 19 15 3 11 -26 23 -22 23 8 0 17
-3 22 -8 13 -7 -10 -11 -10 -24 0 -14 12 -16 10 -15 -15z"/>
<path d="M405 490 c-3 -6 2 -13 11 -17 16 -6 16 -7 -2 -14 -18 -7 -18 -8 1 -8
21 0 55 21 55 35 0 4 -5 3 -11 -3 -6 -6 -18 -9 -26 -6 -12 5 -12 7 -1 14 10 7
9 9 -4 9 -9 0 -20 -5 -23 -10z"/>
<path d="M563 483 c-3 -10 -7 -20 -9 -23 -1 -3 9 -5 22 -5 13 0 22 5 20 10 -2
6 -8 9 -14 8 -6 -2 -9 4 -6 12 4 8 3 15 0 15 -4 0 -9 -8 -13 -17z"/>
<path d="M610 485 c0 -8 8 -15 18 -16 14 0 14 -2 -3 -9 -19 -8 -19 -9 3 -9 17
-1 22 5 22 24 0 18 -5 25 -20 25 -11 0 -20 -7 -20 -15z"/>
<path d="M667 493 c-9 -19 0 -38 18 -41 15 -2 16 -1 7 6 -8 5 -14 13 -14 17 0
4 6 12 14 16 10 7 9 9 -4 9 -9 0 -19 -3 -21 -7z"/>
<path d="M714 485 c-4 -9 -2 -21 4 -27 15 -15 44 -1 40 19 -4 23 -36 29 -44 8z
m30 -16 c-3 -5 -10 -7 -15 -3 -5 3 -7 10 -3 15 3 5 10 7 15 3 5 -3 7 -10 3
-15z"/>
<path d="M897 486 c-11 -27 -9 -32 13 -32 24 0 25 6 7 30 -13 18 -14 18 -20 2z"/>
<path d="M942 475 c0 -16 2 -22 5 -12 2 9 2 23 0 30 -3 6 -5 -1 -5 -18z"/>
<path d="M966 484 c-4 -9 -1 -22 5 -28 9 -8 10 -8 5 2 -9 15 6 16 22 0 9 -9
12 -5 12 18 0 22 -3 26 -10 14 -8 -12 -12 -13 -19 -2 -6 11 -10 10 -15 -4z"/>
<path d="M1027 488 c4 -7 8 -16 8 -20 0 -20 13 -15 17 7 4 20 1 25 -14 25 -13
0 -17 -4 -11 -12z"/>
<path d="M1073 475 c0 -19 4 -25 21 -24 19 1 19 2 2 6 -15 4 -16 7 -5 14 12 7
12 9 -1 10 -10 0 -8 3 5 9 20 8 19 9 -1 9 -16 1 -21 -5 -21 -24z"/>
<path d="M1124 476 c-2 -20 1 -22 11 -13 7 7 10 18 8 24 -8 21 -18 15 -19 -11z"/>
<path d="M1158 480 c-7 -24 -3 -38 8 -28 3 4 4 17 2 30 l-3 23 -7 -25z"/>
<path d="M1190 491 c0 -5 6 -12 13 -14 7 -3 5 -6 -5 -6 -10 -1 -18 -5 -18 -9
0 -9 58 -7 67 2 4 3 12 1 18 -4 9 -8 13 -4 13 16 0 16 -3 21 -8 14 -5 -9 -9
-9 -14 -1 -4 6 -12 11 -17 11 -6 0 -8 -4 -5 -8 2 -4 1 -14 -4 -21 -6 -10 -9
-8 -15 8 -6 21 -25 30 -25 12z"/>
<path d="M1294 485 c-8 -20 4 -35 28 -35 12 0 18 3 14 8 -4 4 -12 7 -17 7 -5
0 -8 5 -6 10 1 6 5 9 10 8 4 -2 7 2 7 7 0 16 -30 12 -36 -5z"/>
<path d="M1348 488 c-8 -20 2 -38 20 -38 13 0 14 2 4 9 -19 11 -17 24 5 32 16
7 16 8 -3 8 -12 1 -24 -5 -26 -11z"/>
<path d="M806 465 c4 -8 8 -15 10 -15 2 0 4 7 4 15 0 8 -4 15 -10 15 -5 0 -7
-7 -4 -15z"/>
</g>
</svg>
